/* XPM */
static char *result[] = {
/* columns rows colors chars-per-pixel */
"64 64 83 1 ",
"  c black",
". c #010101",
"X c #020202",
"o c #040404",
"O c gray2",
"+ c #090909",
"@ c gray4",
"# c #0B0B0B",
"$ c #0C0C0C",
"% c gray5",
"& c #0E0E0E",
"* c #131313",
"= c gray8",
"- c gray9",
"; c #181818",
": c #1B1B1B",
"> c #1E1E1E",
", c #222222",
"< c #232323",
"1 c #252525",
"2 c gray16",
"3 c gray17",
"4 c #2D2D2D",
"5 c #323232",
"6 c #343434",
"7 c #393939",
"8 c #434343",
"9 c #464646",
"0 c gray29",
"q c #4E4E4E",
"w c gray32",
"e c #535353",
"r c #555555",
"t c #5A5A5A",
"y c #5B5B5B",
"u c gray37",
"i c gray42",
"p c gray45",
"a c #767676",
"s c #7B7B7B",
"d c #818181",
"f c gray56",
"g c gray57",
"h c gray59",
"j c #9D9D9D",
"k c #A0A0A0",
"l c #A4A4A4",
"z c gray65",
"x c #AAAAAA",
"c c gray68",
"v c gray69",
"b c #B1B1B1",
"n c gray73",
"m c gray75",
"M c #CACACA",
"N c gray80",
"B c #CECECE",
"V c gray81",
"C c gray82",
"Z c #D7D7D7",
"A c gray85",
"S c gainsboro",
"D c #DFDFDF",
"F c gray88",
"G c #E6E6E6",
"H c #E9E9E9",
"J c gray92",
"K c #ECECEC",
"L c #EFEFEF",
"P c #F1F1F1",
"I c gray95",
"U c gray96",
"Y c #F6F6F6",
"T c gray97",
"R c #F8F8F8",
"E c #F9F9F9",
"W c gray98",
"Q c #FBFBFB",
"! c gray99",
"~ c #FDFDFD",
"^ c #FEFEFE",
"/ c white",
"( c None",
/* pixels */
"((((((((((((((((((((((((((((((((((((((((((((((((((((((((((((((((",
"((((((((((((((((((((((((((((((((((((((((((((((((((((((((((((((((",
"((((((((((((((((((((((((((((((($              ((((((((((((((((((",
"((((((((((((((((((((((((((((                    ((((((((((((((((",
"((((((((((((((((((((((((((                        ((((((((((((((",
"((((((((((((((((((((((((          rC~/WRR!~q       (((((((((((((",
"((((((((((((((((((((((       +LRUUUUUUUUUUUUUB      ((((((((((((",
"(((((((((((((((((((((      SUYYYYYYYYYYYYYYYYYT     ((((((((((((",
"(((((((((((((((((((      KUYYYYYYYYYYYYYYYYYYYYU     (((((((((((",
"((((((((((((((((((     5UUUUUUUUUUUUUUUUUUUUUUUUU     ((((((((((",
"(((((((((((((((((     ~YYYYYYYYYYYYYYYYYYYYYYYYYY/    ((((((((((",
"((((((((((((((((     QYYYYYYYYYYYYYYYYYYYYYYYYYYYY1    (((((((((",
"((((((((((((((((    TUUUUUUUUUUUUUUUUUUUUUUUUUUUUUT    (((((((((",
"(((((((((((((((    WUUUUUUUUUUUUUUUUUUUUUUUUUUUUUUU    @((((((((",
"((((((((((((((    /YYYYYYYYYYYYYYYYYYYYYYYYYYYYYYYY!    ((((((((",
"(((((((((((((    iUUUUUUUUUUUUUUUUUUUUUUUUUUUUUUUUUU    ((((((((",
"(((((((((((((    UUUUUUUUUUUUUUUUUUUUUUUUUUUU% /UUUU    ((((((((",
"((((((((((((    /YYYYYYYYYYYYYYYYYYYYYYYYYYY    YYYYV    (((((((",
"((((((((((((    YYYYYYYGd!YYYYYYYYYYYYYYYYYY    YYYY~    ((  (((",
"(((((((((((    /UUUUUUl   UUUUUUUUUUUUUUUUUU^  PUUUUU    ((  X((",
"(   (((((((    YYYYYYY    /YYYYYYYYYYYYYYYYYYYYYYYYYY    ((  :((",
"((  ((((((    FYYYYYYY/  -YYYYYYYYY/GD!EYYYYYYYYYYYYY    (*  (((",
"((   (((((    YUUUUUUUUUYUUUUUUUU=       WUUUUUUUUUUU6       (((",
"((y   ((((    UUUUUUUUUUUUUUUUUT          YUUUUUUUUUUp      ((((",
"(((    ((    cYYYYYYYYYYYYYYYYY    I//s   7YYYYYYYYYYk     (((((",
"((((         /v8uUYYYYYYYYYYYYJ   UYYYY/   UYYYYYYYYYb   0((((((",
"(((((             ~UUUUUUUUUUU   wUUUUUU   UUUUUUUUUUg   (((((((",
"(((((((           UYYYYYYYYYYY    YYYYYY   YYYYYYYYYYt   (((((((",
"(((((((((    fA/YYYYYYYYYYYYYY    /YYYYW   YYYYYYYYYY2   (((((((",
"(((((((((   oUUUUUUUUUUUUUUUUU,    *NM*   JUUUUUUUUUU    (((((((",
"(((((((((   &YYYYYYYYYYYYYYYYYYe         0YYYYYYYYYYU    (((((((",
"(((((((((    YYYYYYYYYYYYYYYYYYY~;      /YYYYYYYYYYYx   3(((((((",
"(((((((((    UUUUUUUUUUUUUUUUUUUUUUYETUUUUUUUUUUUUUU    ((((((((",
"(((((((((    UUUUUUUUUUUUUUUUUUUUUUUUUUUUUUUUUUUUUU4    ((((((((",
"(((((((((    ~YYYYYYYYYYYYYYYYYYYYYYYYYYYYYYYYYYYY/    (((((((((",
"((((((((((   hYYYYYYYYYYYYYYYYYYYYYYYYYYYYYYYYYYYU     (((((((((",
"((((((((((    UUUUUUUUUUUUUUUUUUUUUUUUUUUUUUUUUUU     ((((((((((",
"((((((((((    /YYYYYYYYYYYYYYYYYYYYYYYYYYYYYYYYY9    (((((((((((",
"(((((((((((    YYYYYYYYYYYYYYYYYYYYYYYYYYYYYYYY3     (((((((((((",
"(((((((((((    nUUUUUUUUUUUUUUUUUUUUUUUUUUUUUU      ((((((((((((",
"(((((((((((#    /YYYYYYYYYYYYYYYYYYYYYYYYYYY/      (((((((((((((",
"((((((((((((     EYYYYYYYYYYYYYYYYYYYYYYYYE       ((((((((((((((",
"(((((((((((((     /UUUUUUUUUUUUUUUUUUUUUW<       (((((((((((((((",
"((((((((((((((     zUUUUUUUUUUUUUUUUUU!         ((((((((((((((((",
"((((((((((((((       mYYYYYYYYYYYYTI$            (((((((((((((((",
"((((((((((((((((        >jH~^QZaX           ((   (((((((((((((((",
"(((((((((((((((((                         (((((   ((((((((((((((",
"((((((((((((((((((                    ((((((((((   (((((((((((((",
"((((((((((((((((((((              .(((((((((((((   (((((((((((((",
"((((((((((((((((((((   ((((((((((((((((((((((((((   ((((((((((((",
"((((((((((((((((((((   ((((((((((((((((((((((((((   ((((((((((((",
"((((((((((((((((((((   ((((((((((((((((((((((((((   ((((((((((((",
"((((((((((((((((((((  O((((((((((((((((((((((((((    (((((((((((",
"((((((((((((((((((((  ((((((((((((((((((((((((((((       (((((((",
"((((((((((((((((((((  (((((((((((((((((((((((((((((        (((((",
"(((((((((((((((((((   ((((((((((((((((((((((((((((((      ((((((",
"(((((((((((((((((((   ((((((((((((((((((((((((((((((((((((((((((",
"(((((((((((((((((((   ((((((((((((((((((((((((((((((((((((((((((",
"((((((((((((((((((   (((((((((((((((((((((((((((((((((((((((((((",
"(((((((((((((((((   ((((((((((((((((((((((((((((((((((((((((((((",
"((((((((((((((((    ((((((((((((((((((((((((((((((((((((((((((((",
"(((((((((((((((    (((((((((((((((((((((((((((((((((((((((((((((",
"((((((((((((((    ((((((((((((((((((((((((((((((((((((((((((((((",
"(((((((((((((((((((((((((((((((((((((((((((((((((((((((((((((((("
};
