/* XPM */
static char *result[] = {
/* columns rows colors chars-per-pixel */
"32 32 33 1 ",
"  c black",
". c #020202",
"X c #040404",
"o c #131313",
"O c #1E1E1E",
"+ c #222222",
"@ c #252525",
"# c gray17",
"$ c #464646",
"% c #555555",
"& c #5B5B5B",
"* c gray37",
"= c #A4A4A4",
"- c #AAAAAA",
"; c gray69",
": c gray80",
"> c gray81",
", c #D7D7D7",
"< c gray88",
"1 c #E6E6E6",
"2 c #E9E9E9",
"3 c gray92",
"4 c gray96",
"5 c #F6F6F6",
"6 c gray97",
"7 c #F8F8F8",
"8 c #F9F9F9",
"9 c gray98",
"0 c gray99",
"q c #FDFDFD",
"w c #FEFEFE",
"e c white",
"r c None",
/* pixels */
"rrrrrrrrrrrrrrrrrrrrrrrrrrrrrrrr",
"rrrrrrrrrrrrrr          rrrrrrrr",
"rrrrrrrrrrrr     %q97q    rrrrrr",
"rrrrrrrrrrr   4555555556  rrrrrr",
"rrrrrrrrr   4444444444444  rrrrr",
"rrrrrrrr   55555555555555@  rrrr",
"rrrrrrrr  4444444444444444  rrrr",
"rrrrrrr  44444444444444444  rrrr",
"rrrrrr  e5555555555555  55>  rrr",
"rrrrrr  444= 444444444w 444  r r",
"r rrr  <555e 55555105555555  o r",
"r& rr  444444444     544444   rr",
"rr     ;*5555553 455  55555  rrr",
"rrrr     455555  555  55555  rrr",
"rrrrr X44444444+  :o 344444  rrr",
"rrrrr  555555555q   e55555- #rrr",
"rrrrr  4444444444444444444  rrrr",
"rrrrr  555555555555555555   rrrr",
"rrrrr  e5555555555555555$  rrrrr",
"rrrrrr  444444444444444   rrrrrr",
"rrrrrr   5555555555558   rrrrrrr",
"rrrrrrr   4444444440    rrrrrrrr",
"rrrrrrrr    O2w,.     r  rrrrrrr",
"rrrrrrrrr          rrrrr  rrrrrr",
"rrrrrrrrrr  rrrrrrrrrrrrr rrrrrr",
"rrrrrrrrrr  rrrrrrrrrrrrr rrrrrr",
"rrrrrrrrrr rrrrrrrrrrrrrr    rrr",
"rrrrrrrrrr rrrrrrrrrrrrrrr   rrr",
"rrrrrrrrrr rrrrrrrrrrrrrrrrrrrrr",
"rrrrrrrrr rrrrrrrrrrrrrrrrrrrrrr",
"rrrrrrrr  rrrrrrrrrrrrrrrrrrrrrr",
"rrrrrrrrrrrrrrrrrrrrrrrrrrrrrrrr"
};
